<svg xmlns="http://www.w3.org/2000/svg" xmlns:xlink="http://www.w3.org/1999/xlink" width="500" zoomAndPan="magnify" viewBox="0 0 375 374.999991" height="500" preserveAspectRatio="xMidYMid meet" version="1.0"><defs><g/><clipPath id="7e247d0ea9"><path d="M 67 325 L 69 325 L 69 325.5 L 67 325.5 Z M 67 325 " clip-rule="nonzero"/></clipPath><clipPath id="3f8d2f1e0e"><path d="M 97 325 L 98 325 L 98 325.5 L 97 325.5 Z M 97 325 " clip-rule="nonzero"/></clipPath><clipPath id="81a761cab0"><path d="M 128 325 L 131 325 L 131 325.5 L 128 325.5 Z M 128 325 " clip-rule="nonzero"/></clipPath><clipPath id="410990416f"><path d="M 226 325 L 227 325 L 227 325.5 L 226 325.5 Z M 226 325 " clip-rule="nonzero"/></clipPath><clipPath id="d7feb22014"><path d="M 42.167969 37.5 L 330.167969 37.5 L 330.167969 325.5 L 42.167969 325.5 Z M 42.167969 37.5 " clip-rule="nonzero"/></clipPath></defs><path fill="#413738" d="M 144.378906 168.875 C 143.078125 169.429688 118.503906 195.464844 114.335938 218.523438 C 106.082031 246.789062 95.667969 280.449219 103.292969 284.351562 C 110.914062 288.257812 164.648438 284.351562 164.648438 284.351562 L 246.640625 241.582031 L 211.128906 164.96875 L 144.378906 168.875 " fill-opacity="1" fill-rule="nonzero"/><path fill="#2e2627" d="M 139.269531 259.808594 C 139.269531 259.808594 127.554688 251.8125 113.890625 254.601562 C 109.707031 254.507812 125.042969 241.210938 139.730469 247.628906 C 154.421875 254.042969 139.269531 259.808594 139.269531 259.808594 " fill-opacity="1" fill-rule="nonzero"/><path fill="#2e2627" d="M 142.429688 210.898438 C 142.429688 209.691406 136.851562 184.867188 139.824219 183.378906 C 142.800781 181.890625 147.914062 188.738281 149.585938 186.292969 C 151.261719 183.84375 144.84375 172.128906 146.984375 171.292969 C 149.121094 170.453125 175.214844 183.628906 188.195312 182.574219 C 201.183594 181.519531 211.5 167.015625 211.5 167.015625 C 211.5 167.015625 227.488281 191.410156 225.445312 203.105469 C 223.398438 214.804688 142.429688 210.898438 142.429688 210.898438 " fill-opacity="1" fill-rule="nonzero"/><path fill="#a72831" d="M 132.496094 176.035156 C 132.496094 176.035156 148.191406 199.929688 149.308594 207.832031 C 150.421875 215.734375 159.441406 213.039062 159.441406 213.039062 C 159.441406 213.039062 160 175.753906 143.730469 167.109375 C 140.941406 166.085938 132.042969 173.894531 132.496094 176.035156 " fill-opacity="1" fill-rule="nonzero"/><path fill="#625154" d="M 216.148438 193.234375 C 216.148438 193.234375 205.085938 178.453125 206.292969 176.40625 C 207.503906 174.359375 226.746094 160.785156 228.140625 162.738281 C 229.535156 164.691406 232.972656 181.613281 232.972656 181.613281 C 232.972656 181.613281 237.714844 180.589844 241.433594 185.425781 C 245.152344 190.257812 253.890625 207.242188 261.203125 219.765625 C 268.515625 232.285156 279.300781 266.378906 273.96875 276.417969 C 268.640625 286.460938 229.71875 281.003906 229.71875 281.003906 C 229.71875 281.003906 208.773438 198.441406 216.148438 193.234375 " fill-opacity="1" fill-rule="nonzero"/><path fill="#625154" d="M 112.605469 136.1875 C 112.605469 136.1875 106.515625 158.398438 146.921875 172.78125 C 187.328125 187.160156 186.585938 188.648438 192.164062 187.410156 C 197.742188 186.167969 215.21875 166.207031 215.21875 166.207031 L 210.136719 150.339844 L 112.605469 136.1875 " fill-opacity="1" fill-rule="nonzero"/><path fill="#251f1f" d="M 117.171875 149.226562 C 117.171875 149.226562 118.289062 154.925781 144.566406 166.332031 C 170.84375 177.738281 181.628906 183.316406 188.195312 182.574219 C 194.765625 181.828125 209.269531 166.332031 209.269531 166.332031 L 204.929688 146.496094 C 204.929688 146.496094 152.746094 116.125 133.660156 119.347656 C 114.570312 122.570312 110.851562 140.421875 117.171875 149.226562 " fill-opacity="1" fill-rule="nonzero"/><path fill="#f79872" d="M 138.765625 127.820312 C 138.765625 127.820312 133.289062 125.433594 132.542969 134.074219 C 131.800781 142.714844 139.917969 145.816406 142.273438 145.074219 C 144.875 159.265625 160.742188 177.675781 180.511719 175.382812 C 200.28125 173.089844 199.832031 156.574219 199.832031 156.574219 C 199.832031 156.574219 159.425781 123.710938 138.765625 127.820312 " fill-opacity="1" fill-rule="nonzero"/><path fill="#a73633" d="M 138.308594 126.226562 C 138.308594 126.226562 137.875 137.570312 143.140625 141.910156 C 144.9375 142.777344 145 134.96875 145 134.96875 C 145 134.96875 146.550781 138.8125 147.851562 138.128906 C 149.152344 137.449219 148.71875 130.382812 148.71875 130.382812 C 148.71875 130.382812 145.558594 125.609375 138.308594 126.226562 " fill-opacity="1" fill-rule="nonzero"/><path fill="#625154" d="M 117.171875 149.226562 C 117.171875 149.226562 110.480469 128.398438 135.144531 127.40625 C 147.335938 126.914062 175.800781 150.589844 193.03125 157.035156 C 210.261719 163.480469 226.375 146.375 226.621094 139.804688 C 226.867188 133.234375 220.050781 134.472656 220.050781 134.472656 C 220.050781 134.472656 221.539062 128.523438 216.085938 128.152344 C 210.382812 122.449219 196.871094 92.199219 184.105469 83.398438 C 171.339844 74.59375 164.523438 70.75 152.871094 73.230469 C 141.21875 75.710938 135.394531 87.113281 135.394531 90.214844 C 135.394531 93.3125 138.742188 93.6875 138.742188 93.6875 C 138.742188 93.6875 122.132812 108.4375 125.105469 118.480469 C 110.480469 128.398438 109.117188 145.132812 117.171875 149.226562 " fill-opacity="1" fill-rule="nonzero"/><path fill="#413738" d="M 134.527344 118.757812 C 134.527344 118.757812 159.441406 120.992188 174.316406 134.007812 C 189.1875 147.023438 197.460938 159.390625 207.128906 157.996094 C 216.796875 156.601562 228.234375 143.304688 220.050781 135.03125 C 218.5625 134.191406 214.9375 133.820312 215.960938 130.382812 C 216.984375 126.941406 213.171875 126.664062 210.664062 128.984375 C 208.152344 131.3125 197.648438 140.980469 188.445312 135.402344 C 179.242188 129.824219 166.96875 110.019531 134.527344 118.757812 " fill-opacity="1" fill-rule="nonzero"/><path fill="#f79872" d="M 201.550781 150.835938 C 201.550781 150.835938 201.460938 174.359375 207.59375 176.40625 C 214.9375 173.988281 225.300781 166.734375 226.628906 163.621094 C 227.953125 160.507812 225.164062 145.257812 222.003906 139.214844 C 218.84375 133.171875 212.183594 132.675781 211.191406 133.851562 C 210.199219 135.03125 211.066406 136.828125 211.066406 136.828125 C 211.066406 136.828125 209.144531 135.402344 207.535156 136.082031 C 205.921875 136.765625 206.542969 140.546875 206.542969 140.546875 C 206.542969 140.546875 205.054688 138.191406 203.503906 139.679688 C 201.953125 141.167969 202.949219 143.210938 202.949219 143.210938 C 202.949219 143.210938 201.707031 141.601562 200.21875 143.894531 C 198.730469 146.1875 199.105469 148.296875 201.550781 150.835938 " fill-opacity="1" fill-rule="nonzero"/><path fill="#413738" d="M 138.742188 93.683594 C 138.742188 93.683594 155.597656 90.585938 166.011719 100.132812 C 165.515625 90.089844 150.019531 78.683594 138.742188 93.683594 " fill-opacity="1" fill-rule="nonzero"/><path fill="#e37665" d="M 170.65625 149.71875 C 170.667969 149.8125 170.90625 153.285156 174.5625 154.492188 C 178.21875 155.703125 179.457031 151.207031 179.457031 151.207031 C 179.457031 151.207031 180.140625 157.59375 174.46875 156.601562 C 168.800781 155.609375 170.628906 149.46875 170.65625 149.71875 " fill-opacity="1" fill-rule="nonzero"/><path fill="#ffffff" d="M 155.164062 154.183594 C 155.164062 154.183594 153.800781 158.585938 157.644531 163.421875 C 161.484375 168.253906 172.890625 168.378906 175.988281 167.324219 C 179.085938 166.269531 180.4375 160.132812 179.484375 159.078125 C 178.527344 158.027344 173.539062 159.605469 167.359375 158.101562 C 161.175781 156.601562 156.527344 152.324219 155.164062 154.183594 " fill-opacity="1" fill-rule="nonzero"/><path fill="#c5a3a5" d="M 171.121094 187.328125 C 171.042969 185.453125 168.636719 186.394531 168.65625 187.980469 C 168.75 194.675781 168.796875 201.363281 168.542969 208.058594 C 168.324219 213.851562 167.097656 220.089844 167.667969 225.84375 C 167.777344 226.972656 169.292969 226.921875 169.578125 225.914062 C 171.269531 219.925781 170.925781 212.875 171.121094 206.675781 C 171.328125 200.234375 171.378906 193.769531 171.121094 187.328125 " fill-opacity="1" fill-rule="nonzero"/><path fill="#c5a3a5" d="M 202.640625 204.613281 C 202.316406 198.585938 202.507812 191.953125 200.925781 186.109375 C 200.65625 185.113281 199.378906 185.765625 199.308594 186.53125 C 198.753906 192.640625 199.847656 199.144531 200.152344 205.269531 C 200.449219 211.230469 199.703125 218.078125 201.210938 223.84375 C 201.507812 224.992188 202.800781 224.121094 202.949219 223.386719 C 204.148438 217.542969 202.957031 210.546875 202.640625 204.613281 " fill-opacity="1" fill-rule="nonzero"/><path fill="#251f1f" d="M 136.847656 279.148438 C 136.847656 279.148438 133.085938 205.550781 135.140625 203.726562 C 137.191406 201.898438 236.023438 201.398438 236.707031 203.726562 C 237.394531 206.050781 235 279.148438 235 279.148438 L 136.847656 279.148438 " fill-opacity="1" fill-rule="nonzero"/><path fill="#413738" d="M 136.847656 279.148438 C 136.847656 279.148438 135.652344 284.964844 136.847656 285.960938 C 138.046875 286.957031 138.046875 286.957031 138.046875 286.957031 C 138.046875 286.957031 235.0625 286.5625 235.453125 286.480469 C 235.84375 286.398438 236.28125 279.5625 235 279.148438 C 233.714844 278.734375 136.847656 279.148438 136.847656 279.148438 " fill-opacity="1" fill-rule="nonzero"/><path fill="#ffffff" d="M 192.582031 239.445312 C 192.582031 242.929688 189.675781 245.757812 186.085938 245.757812 C 182.496094 245.757812 179.585938 242.929688 179.585938 239.445312 C 179.585938 235.957031 182.496094 233.128906 186.085938 233.128906 C 189.675781 233.128906 192.582031 235.957031 192.582031 239.445312 " fill-opacity="1" fill-rule="nonzero"/><path fill="#413738" d="M 137.171875 204.816406 C 137.171875 204.816406 224.285156 200.457031 234.542969 205.664062 C 235.570312 213.082031 232.261719 274 232.261719 274 C 232.261719 274 230.097656 212.53125 228.613281 211.199219 C 227.132812 209.871094 137.648438 211.976562 137.191406 211.753906 C 136.734375 211.53125 136.351562 204.855469 137.171875 204.816406 " fill-opacity="1" fill-rule="nonzero"/><g fill="#efefef" fill-opacity="1"><g transform="translate(117.292417, 282.183274)"><g><path d="M 25.421875 0 L 20.65625 0 L 20.625 -13.78125 L 15.546875 -2.125 L 12.03125 -2.125 L 6.9375 -13.78125 L 6.9375 0 L 2.125 0 L 2.125 -21.234375 L 8.03125 -21.234375 L 13.78125 -8.609375 L 19.546875 -21.234375 L 25.421875 -21.234375 Z M 25.421875 0 "/></g></g></g><g fill="#efefef" fill-opacity="1"><g transform="translate(144.860538, 282.183274)"><g><path d="M 16.203125 -3.90625 L 6.9375 -3.90625 L 5.390625 0 L -0.15625 0 L 9 -21.203125 L 14.546875 -21.203125 L 23.484375 0 L 17.71875 0 Z M 14.640625 -8 L 11.609375 -15.84375 L 8.515625 -8 Z M 14.640625 -8 "/></g></g></g><g fill="#efefef" fill-opacity="1"><g transform="translate(168.187404, 282.183274)"><g><path d="M 14.90625 0 L 11.75 -5.96875 L 7.515625 -5.96875 L 7.515625 0 L 2.125 0 L 2.125 -21.203125 L 11.609375 -21.203125 C 14.410156 -21.203125 16.578125 -20.5625 18.109375 -19.28125 C 19.648438 -18 20.421875 -16.175781 20.421875 -13.8125 C 20.421875 -10.539062 19.140625 -8.269531 16.578125 -7 L 21.03125 0 Z M 7.515625 -10.203125 L 11.609375 -10.203125 C 12.773438 -10.203125 13.679688 -10.492188 14.328125 -11.078125 C 14.972656 -11.671875 15.296875 -12.523438 15.296875 -13.640625 C 15.296875 -14.722656 14.972656 -15.546875 14.328125 -16.109375 C 13.679688 -16.679688 12.773438 -16.96875 11.609375 -16.96875 L 7.515625 -16.96875 Z M 7.515625 -10.203125 "/></g></g></g><g fill="#efefef" fill-opacity="1"><g transform="translate(190.120719, 282.183274)"><g><path d="M 19.390625 -17.75 L 8.0625 -4.265625 L 19.578125 -4.265625 L 19.578125 0 L 0.84375 0 L 0.84375 -3.453125 L 12.203125 -16.9375 L 1.234375 -16.9375 L 1.234375 -21.203125 L 19.390625 -21.203125 Z M 19.390625 -17.75 "/></g></g></g><g fill="#efefef" fill-opacity="1"><g transform="translate(210.569603, 282.183274)"><g><path d="M 16.203125 -3.90625 L 6.9375 -3.90625 L 5.390625 0 L -0.15625 0 L 9 -21.203125 L 14.546875 -21.203125 L 23.484375 0 L 17.71875 0 Z M 14.640625 -8 L 11.609375 -15.84375 L 8.515625 -8 Z M 14.640625 -8 "/></g></g></g><g fill="#efefef" fill-opacity="1"><g transform="translate(233.896468, 282.183274)"><g><path d="M 21.6875 0 L 16.9375 0 L 7.1875 -13.0625 L 7.1875 0 L 2.125 0 L 2.125 -21.203125 L 6.875 -21.203125 L 16.65625 -8.125 L 16.65625 -21.203125 L 21.6875 -21.203125 Z M 21.6875 0 "/></g></g></g><g fill="#6d6d6d" fill-opacity="1"><g transform="translate(116.401821, 301.114346)"><g><path d="M 7.734375 -8.0625 L 4.71875 -8.0625 L 4.71875 0 L 3.125 0 L 3.125 -8.0625 L 0.125 -8.0625 L 0.125 -9.5 L 7.734375 -9.5 Z M 7.734375 -8.0625 "/></g></g></g><g fill="#6d6d6d" fill-opacity="1"><g transform="translate(126.181597, 301.114346)"><g><path d="M 8.03125 -8.0625 L 2.84375 -8.0625 L 2.84375 -5.5 L 7.5 -5.5 L 7.5 -4.0625 L 2.84375 -4.0625 L 2.84375 -1.4375 L 8.203125 -1.4375 L 8.203125 0 L 1.25 0 L 1.25 -9.5 L 8.03125 -9.5 Z M 8.03125 -8.0625 "/></g></g></g><g fill="#6d6d6d" fill-opacity="1"><g transform="translate(137.007193, 301.114346)"><g><path d="M 5.453125 -9.546875 C 6.128906 -9.546875 6.785156 -9.414062 7.421875 -9.15625 C 8.054688 -8.894531 8.601562 -8.535156 9.0625 -8.078125 L 8.140625 -6.90625 C 7.796875 -7.28125 7.382812 -7.578125 6.90625 -7.796875 C 6.4375 -8.015625 5.960938 -8.125 5.484375 -8.125 C 4.535156 -8.125 3.734375 -7.796875 3.078125 -7.140625 C 2.421875 -6.492188 2.09375 -5.707031 2.09375 -4.78125 C 2.09375 -3.84375 2.421875 -3.046875 3.078125 -2.390625 C 3.734375 -1.742188 4.535156 -1.421875 5.484375 -1.421875 C 6.472656 -1.421875 7.359375 -1.796875 8.140625 -2.546875 L 9.078125 -1.5 C 8.585938 -1.019531 8.015625 -0.640625 7.359375 -0.359375 C 6.710938 -0.078125 6.0625 0.0625 5.40625 0.0625 C 4.007812 0.0625 2.835938 -0.398438 1.890625 -1.328125 C 0.941406 -2.253906 0.46875 -3.398438 0.46875 -4.765625 C 0.46875 -6.117188 0.945312 -7.253906 1.90625 -8.171875 C 2.875 -9.085938 4.054688 -9.546875 5.453125 -9.546875 Z M 5.453125 -9.546875 "/></g></g></g><g fill="#6d6d6d" fill-opacity="1"><g transform="translate(148.389646, 301.114346)"><g><path d="M 9.484375 0 L 7.890625 0 L 7.890625 -3.9375 L 2.84375 -3.9375 L 2.84375 0 L 1.25 0 L 1.25 -9.5 L 2.84375 -9.5 L 2.84375 -5.375 L 7.890625 -5.375 L 7.890625 -9.5 L 9.484375 -9.5 Z M 9.484375 0 "/></g></g></g><g fill="#6d6d6d" fill-opacity="1"><g transform="translate(161.048813, 301.114346)"><g/></g></g><g fill="#6d6d6d" fill-opacity="1"><g transform="translate(166.46878, 301.114346)"><g><path d="M 4.375 -9.578125 C 5.601562 -9.578125 6.710938 -9.25 7.703125 -8.59375 L 7.03125 -7.1875 C 6.0625 -7.769531 5.132812 -8.0625 4.25 -8.0625 C 3.769531 -8.0625 3.390625 -7.972656 3.109375 -7.796875 C 2.835938 -7.628906 2.703125 -7.382812 2.703125 -7.0625 C 2.703125 -6.75 2.828125 -6.484375 3.078125 -6.265625 C 3.335938 -6.046875 3.65625 -5.882812 4.03125 -5.78125 C 4.414062 -5.675781 4.828125 -5.539062 5.265625 -5.375 C 5.710938 -5.21875 6.125 -5.050781 6.5 -4.875 C 6.882812 -4.695312 7.203125 -4.421875 7.453125 -4.046875 C 7.703125 -3.671875 7.828125 -3.21875 7.828125 -2.6875 C 7.828125 -1.851562 7.492188 -1.1875 6.828125 -0.6875 C 6.160156 -0.195312 5.296875 0.046875 4.234375 0.046875 C 3.515625 0.046875 2.8125 -0.0859375 2.125 -0.359375 C 1.445312 -0.628906 0.859375 -0.992188 0.359375 -1.453125 L 1.046875 -2.84375 C 1.523438 -2.394531 2.050781 -2.050781 2.625 -1.8125 C 3.195312 -1.570312 3.742188 -1.453125 4.265625 -1.453125 C 4.828125 -1.453125 5.265625 -1.550781 5.578125 -1.75 C 5.890625 -1.957031 6.046875 -2.242188 6.046875 -2.609375 C 6.046875 -2.929688 5.914062 -3.203125 5.65625 -3.421875 C 5.40625 -3.648438 5.085938 -3.816406 4.703125 -3.921875 C 4.328125 -4.023438 3.914062 -4.148438 3.46875 -4.296875 C 3.03125 -4.441406 2.617188 -4.597656 2.234375 -4.765625 C 1.859375 -4.941406 1.539062 -5.210938 1.28125 -5.578125 C 1.03125 -5.953125 0.90625 -6.398438 0.90625 -6.921875 C 0.90625 -7.734375 1.222656 -8.378906 1.859375 -8.859375 C 2.492188 -9.335938 3.332031 -9.578125 4.375 -9.578125 Z M 4.375 -9.578125 "/></g></g></g><g fill="#6d6d6d" fill-opacity="1"><g transform="translate(176.832584, 301.114346)"><g><path d="M 1.921875 -8.171875 C 2.890625 -9.085938 4.082031 -9.546875 5.5 -9.546875 C 6.914062 -9.546875 8.109375 -9.085938 9.078125 -8.171875 C 10.046875 -7.253906 10.53125 -6.113281 10.53125 -4.75 C 10.53125 -3.394531 10.046875 -2.253906 9.078125 -1.328125 C 8.109375 -0.398438 6.914062 0.0625 5.5 0.0625 C 4.082031 0.0625 2.890625 -0.398438 1.921875 -1.328125 C 0.953125 -2.253906 0.46875 -3.394531 0.46875 -4.75 C 0.46875 -6.113281 0.953125 -7.253906 1.921875 -8.171875 Z M 5.515625 -8.109375 C 4.566406 -8.109375 3.757812 -7.785156 3.09375 -7.140625 C 2.425781 -6.492188 2.09375 -5.695312 2.09375 -4.75 C 2.09375 -3.8125 2.425781 -3.015625 3.09375 -2.359375 C 3.769531 -1.703125 4.570312 -1.375 5.5 -1.375 C 6.4375 -1.375 7.234375 -1.703125 7.890625 -2.359375 C 8.554688 -3.015625 8.890625 -3.8125 8.890625 -4.75 C 8.890625 -5.695312 8.554688 -6.492188 7.890625 -7.140625 C 7.234375 -7.785156 6.441406 -8.109375 5.515625 -8.109375 Z M 5.515625 -8.109375 "/></g></g></g><g fill="#6d6d6d" fill-opacity="1"><g transform="translate(189.749804, 301.114346)"><g><path d="M 2.84375 -1.453125 L 6.96875 -1.453125 L 6.96875 0 L 1.25 0 L 1.25 -9.5 L 2.84375 -9.5 Z M 2.84375 -1.453125 "/></g></g></g><g fill="#6d6d6d" fill-opacity="1"><g transform="translate(198.918397, 301.114346)"><g><path d="M 9.328125 -9.5 L 9.328125 -3.9375 C 9.328125 -2.695312 8.957031 -1.71875 8.21875 -1 C 7.488281 -0.289062 6.476562 0.0625 5.1875 0.0625 C 3.90625 0.0625 2.894531 -0.289062 2.15625 -1 C 1.425781 -1.71875 1.0625 -2.695312 1.0625 -3.9375 L 1.0625 -9.5 L 2.65625 -9.5 L 2.65625 -3.9375 C 2.65625 -3.144531 2.882812 -2.519531 3.34375 -2.0625 C 3.800781 -1.601562 4.425781 -1.375 5.21875 -1.375 C 5.988281 -1.375 6.597656 -1.597656 7.046875 -2.046875 C 7.492188 -2.503906 7.71875 -3.132812 7.71875 -3.9375 L 7.71875 -9.5 Z M 9.328125 -9.5 "/></g></g></g><g fill="#6d6d6d" fill-opacity="1"><g transform="translate(211.21085, 301.114346)"><g><path d="M 7.734375 -8.0625 L 4.71875 -8.0625 L 4.71875 0 L 3.125 0 L 3.125 -8.0625 L 0.125 -8.0625 L 0.125 -9.5 L 7.734375 -9.5 Z M 7.734375 -8.0625 "/></g></g></g><g fill="#6d6d6d" fill-opacity="1"><g transform="translate(220.990627, 301.114346)"><g><path d="M 2.84375 0 L 1.25 0 L 1.25 -9.5 L 2.84375 -9.5 Z M 2.84375 0 "/></g></g></g><g fill="#6d6d6d" fill-opacity="1"><g transform="translate(227.008193, 301.114346)"><g><path d="M 1.921875 -8.171875 C 2.890625 -9.085938 4.082031 -9.546875 5.5 -9.546875 C 6.914062 -9.546875 8.109375 -9.085938 9.078125 -8.171875 C 10.046875 -7.253906 10.53125 -6.113281 10.53125 -4.75 C 10.53125 -3.394531 10.046875 -2.253906 9.078125 -1.328125 C 8.109375 -0.398438 6.914062 0.0625 5.5 0.0625 C 4.082031 0.0625 2.890625 -0.398438 1.921875 -1.328125 C 0.953125 -2.253906 0.46875 -3.394531 0.46875 -4.75 C 0.46875 -6.113281 0.953125 -7.253906 1.921875 -8.171875 Z M 5.515625 -8.109375 C 4.566406 -8.109375 3.757812 -7.785156 3.09375 -7.140625 C 2.425781 -6.492188 2.09375 -5.695312 2.09375 -4.75 C 2.09375 -3.8125 2.425781 -3.015625 3.09375 -2.359375 C 3.769531 -1.703125 4.570312 -1.375 5.5 -1.375 C 6.4375 -1.375 7.234375 -1.703125 7.890625 -2.359375 C 8.554688 -3.015625 8.890625 -3.8125 8.890625 -4.75 C 8.890625 -5.695312 8.554688 -6.492188 7.890625 -7.140625 C 7.234375 -7.785156 6.441406 -8.109375 5.515625 -8.109375 Z M 5.515625 -8.109375 "/></g></g></g><g fill="#6d6d6d" fill-opacity="1"><g transform="translate(239.925413, 301.114346)"><g><path d="M 9.484375 0 L 7.921875 0 L 2.84375 -6.8125 L 2.84375 0 L 1.25 0 L 1.25 -9.5 L 2.828125 -9.5 L 7.921875 -2.671875 L 7.921875 -9.5 L 9.484375 -9.5 Z M 9.484375 0 "/></g></g></g><g fill="#6d6d6d" fill-opacity="1"><g transform="translate(252.598165, 301.114346)"><g><path d="M 4.375 -9.578125 C 5.601562 -9.578125 6.710938 -9.25 7.703125 -8.59375 L 7.03125 -7.1875 C 6.0625 -7.769531 5.132812 -8.0625 4.25 -8.0625 C 3.769531 -8.0625 3.390625 -7.972656 3.109375 -7.796875 C 2.835938 -7.628906 2.703125 -7.382812 2.703125 -7.0625 C 2.703125 -6.75 2.828125 -6.484375 3.078125 -6.265625 C 3.335938 -6.046875 3.65625 -5.882812 4.03125 -5.78125 C 4.414062 -5.675781 4.828125 -5.539062 5.265625 -5.375 C 5.710938 -5.21875 6.125 -5.050781 6.5 -4.875 C 6.882812 -4.695312 7.203125 -4.421875 7.453125 -4.046875 C 7.703125 -3.671875 7.828125 -3.21875 7.828125 -2.6875 C 7.828125 -1.851562 7.492188 -1.1875 6.828125 -0.6875 C 6.160156 -0.195312 5.296875 0.046875 4.234375 0.046875 C 3.515625 0.046875 2.8125 -0.0859375 2.125 -0.359375 C 1.445312 -0.628906 0.859375 -0.992188 0.359375 -1.453125 L 1.046875 -2.84375 C 1.523438 -2.394531 2.050781 -2.050781 2.625 -1.8125 C 3.195312 -1.570312 3.742188 -1.453125 4.265625 -1.453125 C 4.828125 -1.453125 5.265625 -1.550781 5.578125 -1.75 C 5.890625 -1.957031 6.046875 -2.242188 6.046875 -2.609375 C 6.046875 -2.929688 5.914062 -3.203125 5.65625 -3.421875 C 5.40625 -3.648438 5.085938 -3.816406 4.703125 -3.921875 C 4.328125 -4.023438 3.914062 -4.148438 3.46875 -4.296875 C 3.03125 -4.441406 2.617188 -4.597656 2.234375 -4.765625 C 1.859375 -4.941406 1.539062 -5.210938 1.28125 -5.578125 C 1.03125 -5.953125 0.90625 -6.398438 0.90625 -6.921875 C 0.90625 -7.734375 1.222656 -8.378906 1.859375 -8.859375 C 2.492188 -9.335938 3.332031 -9.578125 4.375 -9.578125 Z M 4.375 -9.578125 "/></g></g></g><g clip-path="url(#7e247d0ea9)"><path fill="#a72830" d="M 67.953125 325.464844 L 68.460938 325.464844 C 68.292969 325.476562 68.121094 325.472656 67.953125 325.464844 " fill-opacity="1" fill-rule="nonzero"/></g><g clip-path="url(#3f8d2f1e0e)"><path fill="#a72830" d="M 97.621094 325.464844 C 97.625 325.476562 97.625 325.488281 97.625 325.5 C 97.609375 325.488281 97.589844 325.476562 97.574219 325.464844 L 97.621094 325.464844 " fill-opacity="1" fill-rule="nonzero"/></g><g clip-path="url(#81a761cab0)"><path fill="#a72830" d="M 128.726562 325.464844 L 130.097656 325.464844 C 129.726562 325.476562 128.863281 325.503906 128.726562 325.464844 " fill-opacity="1" fill-rule="nonzero"/></g><g clip-path="url(#410990416f)"><path fill="#a72830" d="M 226.5625 325.46875 L 226.417969 325.46875 C 226.417969 325.464844 226.414062 325.464844 226.414062 325.464844 L 226.5625 325.464844 C 226.5625 325.464844 226.5625 325.464844 226.5625 325.46875 " fill-opacity="1" fill-rule="nonzero"/></g><g clip-path="url(#d7feb22014)"><path fill="#ffffff" d="M 284.578125 308.867188 L 87.757812 308.867188 L 87.757812 152.542969 C 87.757812 139.257812 90.355469 126.371094 95.488281 114.242188 C 100.449219 102.519531 107.546875 91.996094 116.582031 82.960938 C 125.621094 73.921875 136.140625 66.824219 147.863281 61.867188 C 159.996094 56.734375 172.878906 54.132812 186.167969 54.132812 C 199.457031 54.132812 212.34375 56.734375 224.472656 61.867188 C 236.195312 66.824219 246.71875 73.921875 255.753906 82.960938 C 264.792969 91.996094 271.890625 102.519531 276.847656 114.242188 C 281.980469 126.371094 284.578125 139.257812 284.578125 152.542969 Z M 42.167969 37.5 L 42.167969 325.5 L 330.167969 325.5 L 330.167969 37.5 L 42.167969 37.5 " fill-opacity="1" fill-rule="nonzero"/></g><path fill="#a72830" d="M 284.578125 308.867188 L 87.757812 308.867188 L 87.757812 152.542969 C 87.757812 139.257812 90.355469 126.371094 95.488281 114.242188 C 100.449219 102.519531 107.546875 91.996094 116.582031 82.960938 C 125.621094 73.921875 136.140625 66.824219 147.863281 61.867188 C 159.996094 56.734375 172.878906 54.132812 186.167969 54.132812 C 199.457031 54.132812 212.34375 56.734375 224.472656 61.867188 C 236.195312 66.824219 246.71875 73.921875 255.753906 82.960938 C 264.792969 91.996094 271.890625 102.519531 276.847656 114.242188 C 281.980469 126.371094 284.578125 139.257812 284.578125 152.542969 Z M 186.167969 52.585938 C 130.964844 52.585938 86.210938 97.339844 86.210938 152.542969 L 86.210938 310.414062 L 286.128906 310.414062 L 286.128906 152.542969 C 286.128906 97.339844 241.371094 52.585938 186.167969 52.585938 " fill-opacity="1" fill-rule="nonzero"/></svg>